<svg width="24" height="25" viewBox="0 0 24 25" fill="none" xmlns="http://www.w3.org/2000/svg">
<g clip-path="url(#clip0_8_1240)">
<path d="M23.5078 12.4245C23.5078 11.4412 23.4295 10.7237 23.2598 9.97961H12.2295V14.4176H18.7041C18.5736 15.5205 17.8687 17.1814 16.3022 18.2975L16.2802 18.4461L19.7678 21.1963L20.0095 21.2209C22.2285 19.1347 23.5078 16.0653 23.5078 12.4245Z" fill="#4285F4"/>
<path d="M12.2295 24.1175C15.4015 24.1175 18.0644 23.0545 20.0095 21.2209L16.3022 18.2975C15.3101 19.0018 13.9786 19.4934 12.2295 19.4934C9.12274 19.4934 6.48592 17.4073 5.54596 14.5239L5.40819 14.5358L1.78174 17.3927L1.73431 17.5269C3.66624 21.4334 7.63456 24.1175 12.2295 24.1175Z" fill="#34A853"/>
<path d="M5.54609 14.5239C5.29808 13.7798 5.15454 12.9825 5.15454 12.1587C5.15454 11.3348 5.29808 10.5376 5.53304 9.79349L5.52647 9.63502L1.85458 6.7323L1.73444 6.79047C0.938206 8.41157 0.481323 10.232 0.481323 12.1587C0.481323 14.0854 0.938206 15.9057 1.73444 17.5268L5.54609 14.5239Z" fill="#FBBC05"/>
<path d="M12.2295 4.82398C14.4355 4.82398 15.9236 5.79397 16.7721 6.60456L20.0877 3.30923C18.0514 1.38255 15.4015 0.199951 12.2295 0.199951C7.63455 0.199951 3.66623 2.88401 1.73431 6.79051L5.53291 9.79354C6.48591 6.91015 9.12273 4.82398 12.2295 4.82398Z" fill="#EB4335"/>
</g>
<defs>
<clipPath id="clip0_8_1240">
<rect width="23.04" height="24" fill="white" transform="translate(0.47998 0.199951)"/>
</clipPath>
</defs>
</svg>
