<svg width="380" height="207" viewBox="0 0 380 207" fill="none" xmlns="http://www.w3.org/2000/svg">
<ellipse cx="355" cy="34.6751" rx="10" ry="10.5076" fill="url(#paint0_linear_40_2073)"/>
<ellipse cx="55" cy="153.411" rx="5" ry="5.25381" fill="url(#paint1_linear_40_2073)"/>
<ellipse cx="41.5" cy="30.9975" rx="3.5" ry="3.67766" fill="url(#paint2_linear_40_2073)"/>
<ellipse cx="347.5" cy="154.987" rx="7.5" ry="7.88071" fill="url(#paint3_linear_40_2073)"/>
<ellipse cx="17.5" cy="98.246" rx="2.5" ry="2.6269" fill="url(#paint4_linear_40_2073)"/>
<ellipse cx="283.5" cy="103.5" rx="2.5" ry="2.6269" fill="url(#paint5_linear_40_2073)"/>
<ellipse cx="123.5" cy="33.0991" rx="2.5" ry="2.6269" fill="url(#paint6_linear_40_2073)"/>
<ellipse cx="274" cy="40.9795" rx="1" ry="1.05076" fill="url(#paint7_linear_40_2073)"/>
<defs>
<linearGradient id="paint0_linear_40_2073" x1="365" y1="45.1827" x2="341.027" y2="38.5676" gradientUnits="userSpaceOnUse">
<stop stop-color="#101010"/>
<stop offset="1" stop-color="#313130"/>
</linearGradient>
<linearGradient id="paint1_linear_40_2073" x1="60" y1="158.665" x2="48.0133" y2="155.357" gradientUnits="userSpaceOnUse">
<stop stop-color="#101010"/>
<stop offset="1" stop-color="#313130"/>
</linearGradient>
<linearGradient id="paint2_linear_40_2073" x1="45" y1="34.6752" x2="36.6093" y2="32.3599" gradientUnits="userSpaceOnUse">
<stop stop-color="#101010"/>
<stop offset="1" stop-color="#313130"/>
</linearGradient>
<linearGradient id="paint3_linear_40_2073" x1="355" y1="162.868" x2="337.02" y2="157.907" gradientUnits="userSpaceOnUse">
<stop stop-color="#101010"/>
<stop offset="1" stop-color="#313130"/>
</linearGradient>
<linearGradient id="paint4_linear_40_2073" x1="20" y1="100.873" x2="14.0066" y2="99.2192" gradientUnits="userSpaceOnUse">
<stop stop-color="#101010"/>
<stop offset="1" stop-color="#313130"/>
</linearGradient>
<linearGradient id="paint5_linear_40_2073" x1="286" y1="106.127" x2="280.007" y2="104.473" gradientUnits="userSpaceOnUse">
<stop stop-color="#101010"/>
<stop offset="1" stop-color="#313130"/>
</linearGradient>
<linearGradient id="paint6_linear_40_2073" x1="126" y1="35.726" x2="120.007" y2="34.0722" gradientUnits="userSpaceOnUse">
<stop stop-color="#101010"/>
<stop offset="1" stop-color="#313130"/>
</linearGradient>
<linearGradient id="paint7_linear_40_2073" x1="275" y1="42.0302" x2="272.603" y2="41.3687" gradientUnits="userSpaceOnUse">
<stop stop-color="#101010"/>
<stop offset="1" stop-color="#313130"/>
</linearGradient>
</defs>
</svg>
