<svg width="28" height="28" viewBox="0 0 28 28" fill="none" xmlns="http://www.w3.org/2000/svg">
<path fill-rule="evenodd" clip-rule="evenodd" d="M8.55213 2.33398H19.4476C23.4155 2.33398 25.6555 4.58448 25.6671 8.55232V19.449C25.6671 23.4157 23.4155 25.6673 19.4476 25.6673H8.55213C4.5843 25.6673 2.3338 23.4157 2.3338 19.449V8.55232C2.3338 4.58448 4.5843 2.33398 8.55213 2.33398ZM14.0576 20.8373C14.5605 20.8373 14.9793 20.464 15.026 19.9623V8.07398C15.0726 7.71232 14.8988 7.34948 14.5838 7.15232C14.256 6.95398 13.8593 6.95398 13.5455 7.15232C13.2293 7.34948 13.0555 7.71232 13.0893 8.07398V19.9623C13.1488 20.464 13.5676 20.8373 14.0576 20.8373ZM19.4255 20.8373C19.9155 20.8373 20.3343 20.464 20.3938 19.9623V16.1357C20.4276 15.7612 20.2538 15.4123 19.9376 15.214C19.6238 15.0157 19.2271 15.0157 18.9005 15.214C18.5843 15.4123 18.4105 15.7612 18.4571 16.1357V19.9623C18.5038 20.464 18.9226 20.8373 19.4255 20.8373ZM9.5893 19.9623C9.54263 20.464 9.1238 20.8373 8.62097 20.8373C8.1193 20.8373 7.6993 20.464 7.6538 19.9623V11.9007C7.6188 11.5378 7.79263 11.1773 8.1088 10.979C8.42263 10.7807 8.82047 10.7807 9.13547 10.979C9.4493 11.1773 9.62547 11.5378 9.5893 11.9007V19.9623Z" fill="#101010"/>
</svg>
